<svg xmlns="http://www.w3.org/2000/svg" viewBox="0 0 150 184">
<!-- SVG created with Arrow, by QuiverAI (https://quiver.ai) -->
  <style type="text/css">.cls-0 {fill:#FFFFFF;}
.cls-1 {fill:url(#SVGID_1_);}
.cls-2 {fill:url(#SVGID_2_);}
.cls-3 {fill:url(#SVGID_3_);}
.cls-4 {fill:url(#SVGID_4_);}
.cls-5 {fill:url(#SVGID_5_);}
.cls-6 {fill:url(#SVGID_6_);}
.cls-7 {fill:url(#SVGID_7_);}</style>
  <linearGradient id="SVGID_1_" x1="45.41" x2="125.9" y1="146.6" y2="146.6" gradientUnits="userSpaceOnUse">
    <stop stop-color="#002D8A" offset="0"/>
    <stop stop-color="#05139B" offset="1"/>
  </linearGradient>
  <path class="cls-1" d="m45.4 152.9c0.1 7 5.3 11.1 10.7 8.1l65.5-39.6-21.9-13.1-54.3 32.7v11.9z"/>
  <linearGradient id="SVGID_2_" x1="6.976" x2="74.95" y1="46.33" y2="19.7" gradientUnits="userSpaceOnUse">
    <stop stop-color="#0041CC" offset="0"/>
    <stop stop-color="#19A3FF" offset="1"/>
  </linearGradient>
  <path class="cls-2" d="m67.8 6.5-55.4 33.8c-3.1 1.9-5.9 4.3-5.9 5.4l1.1 5.1 26.4 10.7 60-35.7c4.2-5.9 12.9-3.8 15.3-3.3l-26.2-15.7c-3.2-1.9-8.8-4.1-15.3-0.3z"/>
  <linearGradient id="SVGID_3_" x1="75.93" x2="143.3" y1="45.93" y2="45.93" gradientUnits="userSpaceOnUse">
    <stop stop-color="#00207F" offset="0"/>
    <stop stop-color="#1C6FFF" offset="1"/>
  </linearGradient>
  <path class="cls-3" d="m142.9 44.5-34.9-22.1c-3.2-0.8-5.2-0.8-9.1 1.2l-23 13.8 42.8 25.7 24.6-15.5-0.4-3.1z"/>
  <linearGradient id="SVGID_4_" x1="44.93" x2="100.1" y1="87.58" y2="53.61" gradientUnits="userSpaceOnUse">
    <stop stop-color="#0030AF" offset="0"/>
    <stop stop-color="#198AFF" offset=".5"/>
    <stop stop-color="#083DBE" offset="1"/>
  </linearGradient>
  <polygon class="cls-4" points="45.1 87.9 45.1 124.1 50.1 120 70.4 106 70.3 97.3 117.9 63.9 99.7 51.7"/>
  <linearGradient id="SVGID_5_" x1="3.342" x2="45.1" y1="107.6" y2="107.6" gradientUnits="userSpaceOnUse">
    <stop stop-color="#00CAFF" offset="0"/>
    <stop stop-color="#005BEA" offset="1"/>
  </linearGradient>
  <path class="cls-5" d="m40 65.7-30.3-17.3c-2.1-1.4-3-2.9-1.8-5.1l-1.3 1.4c-1.6 1.9-1.8 4.3-1.8 5.3v79.2c-0.1 7 4.1 11.5 6.6 12.8l39.6 22-6-8v-81c0-6.4-5-9.3-5-9.3z"/>
  <linearGradient id="SVGID_6_" x1="44.07" x2="145.8" y1="122.7" y2="122.7" gradientUnits="userSpaceOnUse">
    <stop stop-color="#4042EE" offset="0"/>
    <stop stop-color="#8039F3" offset="1"/>
  </linearGradient>
  <path class="cls-6" d="m139.7 112-24.8-15.2-15.9 8.9-28.4-9.8c-1.6 1.5-2.8 3.2-2.6 5.1 0.3 3 1.1 6.4 5.4 8.9l48.1 29.5 3.5 14.6 15-9.4c3.2-2.1 5.7-5.2 5.7-11.4l-0.1-10.1c0-4.2-1.9-8.6-5.9-11.1z"/>
  <linearGradient id="SVGID_7_" x1="50.54" x2="145.3" y1="121.5" y2="58.02" gradientUnits="userSpaceOnUse">
    <stop stop-color="#8E52EA" offset="0"/>
    <stop stop-color="#BD5BF1" offset=".5012"/>
    <stop stop-color="#5929DA" offset="1"/>
  </linearGradient>
  <path class="cls-7" d="m145.1 49c0.1-1.6-0.5-3.6-1-4.3l-1.2-0.3-0.5 2.6-70.3 46.9c-3 2.1-4.1 4.3-4.1 7.3-0.1 3.9 2 6.9 4.9 8.8l25.1 14.5-1.1-6c-2.7-5.9 1.2-10.1 3.6-11.6l39.6-25.1c1.8-1.2 5.2-4.5 5.3-10l-0.3-22.8z"/>
  <linearGradient id="SVGID_8_" x1="44.07" x2="127.7" y1="134.6" y2="134.6" gradientUnits="userSpaceOnUse">
    <stop stop-color="#3345ED" offset="0"/>
    <stop stop-color="#0B0F9F" offset="1"/>
  </linearGradient>
  <path d="m105 130.3-49 31.1c-3.3 1.7-6.9 1.3-9.1-1l2.7 3.5 21.7 12.8c3 1.9 8.3 3.2 13.7 0.6l37.7-22.5c2.8-1.7 5.6-4.2 4.8-9.4l-2-4-20.5-11.1z" fill="url(#SVGID_8_)"/>
  <linearGradient id="SVGID_9_" x1="7.225" x2="107.9" y1="48.36" y2="48.36" gradientUnits="userSpaceOnUse">
    <stop stop-color="#77DEFE" offset="0"/>
    <stop stop-color="#5DAEFD" offset="1"/>
  </linearGradient>
  <path d="m105.4 20.7c-2 0-4.4 0.5-7.6 2.3l-87.3 50.7-0.1-31.4c2-1.8 8.1-5.3 9.6-6.2l47.8-29.2c2.6-1.4 4.9-2.5 8-2.5 2.3 0 4.5 0.5 7.6 2.2l24.5 14.2c-0.8 0-1.6-0.1-2.5-0.1zm-30.1-16.3-0.3 0.1 0.3-0.1z" fill="url(#SVGID_9_)"/>
  <linearGradient id="SVGID_10_" x1="43.17" x2="144.8" y1="98.73" y2="98.73" gradientUnits="userSpaceOnUse">
    <stop stop-color="#5560EF" offset="0"/>
    <stop stop-color="#8E52EA" offset="1"/>
  </linearGradient>
  <path d="m77.8 179.5c-3.2 0-5.2-0.9-7.3-2.1l-21.9-13.1c-1.7-1.2-5.4-4-5.4-11v-77.1c0-5.7-2.4-9-6.2-11.1l-27.3-15.6c-2.1-1.1-3-2.5-3-3.9 0-0.4 0.5-1.6 1.5-2.4v0.2c-0.3 0.5-0.3 0.8-0.4 1.5 0 1.4 1 2.7 2.9 3.6l27.5 15.5c3.4 2.1 7 5 7.1 11.6v77.7c0.2 6.2 3.8 10.1 8.8 9.5 1.1-0.2 2-0.6 3-1.1l44.9-24.8 3.5-2.3 2.5-1.7-2.1-1.7-1.5 0.8-26.8 15.9c-0.1 0-18.4 11.1-21.4 13.2-2.9 1.8-5.9 1.8-8.1 0.8 1.5 1.4 9.9 5.8 21.8 13 3 1.8 5.4 2.8 7.7 2.8h0.1c2.3 0 4.4-0.6 6.7-2l37.4-22.3c3.7-1.6 4.9-4.2 5.1-6.4-0.3-3-1.4-4.7-4.8-6.7l-22-14.2 1-1.5 21.5 13.4c2.7 1.6 6.1 4 5.3 9.4-0.3 3.2-2 5.3-4.8 6.9l-37.8 23.1c-2.1 1.2-4.5 2.1-7.5 2.1z" fill="url(#SVGID_10_)"/>
  <linearGradient id="SVGID_11_" x1="32.86" x2="144.7" y1="41.19" y2="41.19" gradientUnits="userSpaceOnUse">
    <stop stop-color="#005BEA" offset="0"/>
    <stop stop-color="#76ACFB" offset="1"/>
  </linearGradient>
  <path d="m33.9 62.5-1-1.1 65.3-39c2.3-1.2 4.2-1.7 6.2-1.7 2.9 0 4.8 1.2 7.3 2.5l28.1 16.7c2.6 1.6 4.8 3.6 4.9 6 0 1.8-1 3-3.6 4.5l-41.4 25.6-1.5-0.9 41.5-25.6c2-1.1 3-2.4 2.9-3.6 0-1.4-1.2-3.3-3.7-4.8l-27.9-16.7c-4.1-2.3-7.6-3-12.3-0.4l-64.8 38.5z" fill="url(#SVGID_11_)"/>
  <linearGradient id="SVGID_12_" x1="67.87" x2="144.8" y1="79.88" y2="79.88" gradientUnits="userSpaceOnUse">
    <stop stop-color="#CFBAFC" offset="0"/>
    <stop stop-color="#8A5AFA" offset="1"/>
  </linearGradient>
  <path d="m72 94.5c-2.5 2-4.1 4.1-4.1 7.5 0 2.9 1.1 3.5 1.2 4.1-0.4-0.7-1.2-2-1.2-4.5-0.1-2.4 1-5.3 4.6-7.6l67.5-43.6c1.9-1.2 3.9-2.5 4.4-5.3l0.4 0.9c-0.1 2-1.9 3.5-4.1 4.7l-68.7 43.8z" fill="url(#SVGID_12_)"/>
  <linearGradient id="SVGID_13_" x1="100" x2="145.8" y1="106" y2="106" gradientUnits="userSpaceOnUse">
    <stop stop-color="#6821DC" offset="0"/>
    <stop stop-color="#B46DFB" offset="1"/>
  </linearGradient>
  <path d="m138.7 111.7-23.7-14.7-1 0.6 24 14.6c2.9 1.8 5.9 5.2 5.9 10.8l0.1 9.7c0 2.8-0.4 5.8-2.1 8.2 2.4-1.9 3.9-5 3.8-9.5v-7.9c-0.1-5.5-2.1-9.5-7-11.8z" fill="url(#SVGID_13_)"/>
  <linearGradient id="SVGID_14_" x1="45.13" x2="127.6" y1="127.6" y2="127.6" gradientUnits="userSpaceOnUse">
    <stop stop-color="#3343EC" offset="0"/>
    <stop stop-color="#B55AFE" offset="1"/>
  </linearGradient>
  <path d="m121.9 137.4-20.7-12.9c-3.6-2.1-5.7-5.1-5.8-9-0.1-4 3.1-7.4 5.1-8.9l-1.1 0.5c-2.3 1.8-5 4.6-5 8.4 0.2 4 2.5 7.5 6 9.4l20.5 12.7c3.7 2.3 6.8 4.5 6.7 9-0.1 1.1-0.2 2.4-0.9 4 1-1.2 0.9-1.6 1.2-4 0-5.5-3.2-7.6-6-9.2z" fill="url(#SVGID_14_)"/>
</svg>